<svg xmlns="http://www.w3.org/2000/svg" version="1.1" xmlns:xlink="http://www.w3.org/1999/xlink" xmlns:svgjs="http://svgjs.com/svgjs" width="512" height="512" x="0" y="0" viewBox="0 0 32 32" style="enable-background:new 0 0 512 512" xml:space="preserve" class=""><g><path xmlns="http://www.w3.org/2000/svg" d="m6.59796 19.24103c-.65674 1.65723-1.69482 3.29785-3.08496 4.87695-.44238.50244-.49854 1.21973-.13965 1.78467.27637.43457.74121.68213 1.2334.68213.13867 0 .27979-.01953.41895-.06006 2.94629-.86084 9.81885-3.91846 10.00342-13.69189.07129-3.77393-2.68896-7.01611-6.2832-7.38135-1.98097-.19825-3.9629.44531-5.43165 1.77295-1.4707 1.3291-2.31445 3.22656-2.31445 5.20654 0 3.30322 2.34472 6.19189 5.59814 6.81006zm-1.94287-10.53272c.93408-.84424 2.10986-1.29395 3.35645-1.29395.17627 0 .354.00879.53223.02734 2.56689.26025 4.53711 2.61182 4.48535 5.35303-.12744 6.7627-3.78906 9.80713-6.82129 11.16895.95947-1.29785 1.71338-2.63281 2.24951-3.98584.20898-.52686.17432-1.11572-.09473-1.61572-.28174-.52441-.78418-.89648-1.37744-1.021-2.30957-.48291-3.98535-2.54834-3.98535-4.91016 0-1.41503.60351-2.77196 1.65527-3.72265z" fill="#7167FF"></path><path xmlns="http://www.w3.org/2000/svg" d="m19.34357 25.90265c.27637.43457.74121.68213 1.2334.68213.13867 0 .2793-.01953.41895-.06006 2.94629-.86084 9.81836-3.91846 10.00293-13.69189v-.00049c.07031-3.77393-2.68945-7.01563-6.28418-7.38086-1.9834-.20166-3.96191.44482-5.43066 1.77295-1.4707 1.3291-2.31445 3.22656-2.31445 5.20654 0 3.30322 2.34473 6.19189 5.59766 6.81006-.65723 1.65869-1.69531 3.29932-3.08496 4.87744-.4424.50293-.49807 1.21973-.13869 1.78418zm5.083-5.92383c.20898-.52686.1748-1.11572-.09375-1.61572-.28223-.5249-.78418-.89697-1.37793-1.02197-2.30957-.48291-3.98535-2.54834-3.98535-4.91016 0-1.41553.60352-2.77197 1.65527-3.72266.93359-.84424 2.10938-1.29395 3.35645-1.29395.17578 0 .35352.00879.53223.02734 2.56641.26025 4.53711 2.61182 4.48535 5.35303-.12695 6.76318-3.78906 9.80713-6.82129 11.16895.95899-1.29687 1.71192-2.63183 2.24902-3.98486z" fill="#7167FF"></path></g></svg>